<svg width="48" height="48" viewBox="0 0 48 48" fill="none" xmlns="http://www.w3.org/2000/svg">
<rect width="48" height="48" rx="24" fill="#F1F3F8" fill-opacity="0.1"/>
<path d="M29.2908 22.4552H28.5657H28.5655V19.9011C28.5655 17.1987 26.3668 15 23.6643 15C20.9619 15 18.7632 17.1987 18.7632 19.9012V22.4553H18.038C17.4646 22.4553 16.9998 22.9201 16.9998 23.4935V24.125V31.3303V31.9618C16.9998 32.5352 17.4646 33 18.038 33H23.6644H29.2908C29.8642 33 30.329 32.5352 30.329 31.9618V31.3303V24.125V23.4935C30.329 22.92 29.8642 22.4552 29.2908 22.4552ZM24.7694 29.8919H22.5594L22.9549 28.0071C22.585 27.7717 22.3379 27.3607 22.3379 26.8897C22.3379 26.1572 22.9318 25.5634 23.6644 25.5634C24.3969 25.5634 24.9907 26.1572 24.9907 26.8897C24.9907 27.3607 24.7437 27.7717 24.3739 28.007L24.7694 29.8919ZM26.8167 22.4552H23.6644H20.5122H20.512V19.9011C20.512 18.1628 21.9261 16.7488 23.6644 16.7488C25.4027 16.7488 26.8167 18.1628 26.8167 19.9011V22.4552Z" fill="#8D8F96"/>
</svg>
