<svg width="48" height="48" viewBox="0 0 48 48" fill="none" xmlns="http://www.w3.org/2000/svg">
<rect width="48" height="48" rx="24" fill="#F1F3F8" fill-opacity="0.1"/>
<path d="M35.4462 24C35.4462 28.1237 32.1032 31.4667 27.9795 31.4667C23.8558 31.4667 20.5128 28.1237 20.5128 24C20.5128 19.8763 23.8558 16.5333 27.9795 16.5333C32.1032 16.5333 35.4462 19.8763 35.4462 24Z" stroke="#8D8F96" stroke-width="1.06667"/>
<path d="M30.2961 23.4762L28.5227 21.7029L29.416 20.8096L31.1894 20.8096V22.5829L30.2961 23.4762Z" fill="#8D8F96"/>
<path d="M30.296 24.543L28.5227 26.3163L29.416 27.2096H31.1894L31.1894 25.4363L30.296 24.543Z" fill="#8D8F96"/>
<path d="M26.4794 27.2096L29.5891 24.0096L26.4794 20.8096L24.7891 20.8096L24.7891 22.5491L26.2083 24.0096L24.7891 25.47L24.7891 27.2096H26.4794Z" fill="#8D8F96"/>
<path fill-rule="evenodd" clip-rule="evenodd" d="M23.9795 17.0702C22.8028 16.3896 21.4366 16 19.9795 16C15.5612 16 11.9795 19.5817 11.9795 24C11.9795 28.4183 15.5612 32 19.9795 32C21.4366 32 22.8028 31.6104 23.9795 30.9297C23.6305 30.7279 23.2981 30.5004 22.985 30.2498C22.0758 30.6879 21.0563 30.9333 19.9795 30.9333C16.1503 30.9333 13.0462 27.8292 13.0462 24C13.0462 20.1708 16.1503 17.0667 19.9795 17.0667C21.0563 17.0667 22.0758 17.3121 22.985 17.7502C23.2981 17.4996 23.6304 17.2721 23.9795 17.0702ZM20.2143 22.0681L20.203 22.0791L18.7715 20.6883L16.7642 20.6883L16.7642 22.6477L18.191 24.0339L16.7642 25.4202L16.7642 27.3796H18.7715L20.203 25.9888L20.2372 26.0221C20.217 25.9445 20.1979 25.8665 20.18 25.788L18.7066 27.2196H16.9242L16.9242 25.4878L16.9243 25.4877L16.9243 27.2194H18.7067L20.18 25.7879C20.0965 25.4223 20.0381 25.0471 20.0066 24.6643L19.3578 24.0339L20.0009 23.4091C20.0069 23.3274 20.0141 23.246 20.0225 23.165L19.1284 24.0338L19.1284 24.0337L20.0225 23.1649C20.0613 22.7911 20.1258 22.4249 20.2143 22.0681ZM18.4205 24.0339L18.4207 24.0337L16.9243 22.5798L16.9243 20.8483H16.9242L16.9242 22.58L18.4205 24.0339ZM17.4247 21.3344L18.4993 21.3344L19.8491 22.6459L19.8493 22.6457L18.4995 21.3342L17.4247 21.3342V21.3344ZM18.4344 21.4944L19.6195 22.6459L18.7744 23.4671L17.5846 22.311L17.5846 21.4944L18.4344 21.4944ZM17.5846 26.5734L17.5846 25.7568L18.7744 24.6008L19.6195 25.4219L18.4344 26.5734H17.5846ZM17.4247 25.6891L18.7744 24.3777L19.8491 25.4219L19.8493 25.4217L18.7745 24.3775L17.4247 25.689V25.6891Z" fill="#8D8F96"/>
</svg>
