<svg width="48" height="48" viewBox="0 0 48 48" fill="none" xmlns="http://www.w3.org/2000/svg">
<rect width="48" height="48" rx="24" fill="#F47501" fill-opacity="0.15"/>
<circle cx="23.9991" cy="23.9989" r="8.4008" stroke="#F47501" stroke-width="1.20011"/>
<g clip-path="url(#clip0_12395_4906)">
<path d="M28.1766 23.0201C28.1213 22.85 27.9704 22.7296 27.7927 22.7135L25.3678 22.4933L24.4095 20.2497C24.3388 20.0849 24.1778 19.9785 23.9986 19.9785C23.8194 19.9785 23.6584 20.0849 23.588 20.2497L22.6297 22.4933L20.2045 22.7135C20.0267 22.7299 19.8762 22.8503 19.8206 23.0201C19.7653 23.1902 19.8163 23.3767 19.9508 23.4946L21.7838 25.1019L21.2433 27.4823C21.2038 27.6573 21.2717 27.8383 21.4169 27.9432C21.495 28 21.5867 28.0283 21.6787 28.0283C21.7578 28.0283 21.837 28.0073 21.9077 27.965L23.9986 26.7147L26.0891 27.965C26.2425 28.0566 26.4353 28.0482 26.5803 27.9432C26.7255 27.8383 26.7934 27.6573 26.7539 27.4823L26.2134 25.1019L28.0464 23.4946C28.1808 23.3767 28.2319 23.1905 28.1766 23.0201Z" fill="#F47501"/>
</g>
<defs>
<clipPath id="clip0_12395_4906">
<rect width="8.4" height="8.4" fill="white" transform="translate(19.7986 19.7979)"/>
</clipPath>
</defs>
</svg>
