<svg width="48" height="48" viewBox="0 0 48 48" fill="none" xmlns="http://www.w3.org/2000/svg">
<rect width="48" height="48" rx="24" fill="#F1F3F8" fill-opacity="0.1"/>
<path d="M21.3327 20.428C24.9573 20.428 27.6656 18.9951 27.6656 17.714C27.6656 16.4329 24.9572 15 21.3327 15C17.7083 15 15 16.4329 15 17.714C15 18.9951 17.7082 20.428 21.3327 20.428Z" fill="#8D8F96"/>
<path d="M21.3327 31.2844C21.8618 31.2844 22.371 31.2536 22.8553 31.1976C22.447 30.6729 22.1094 30.0907 21.8565 29.4654C21.6827 29.4712 21.5083 29.4753 21.3327 29.4753C19.2616 29.4753 17.3003 29.0649 15.8102 28.3198C15.5168 28.1731 15.2468 28.0155 15 27.8486V28.5704C15 29.8515 17.7082 31.2844 21.3327 31.2844Z" fill="#8D8F96"/>
<path d="M21.3328 27.6662C21.3514 27.6662 21.3697 27.6659 21.3882 27.6659C21.3511 27.3693 21.3317 27.0673 21.3317 26.7609C21.3317 26.4545 21.351 26.1527 21.3882 25.8564C21.3697 25.8564 21.3513 25.8571 21.3328 25.8571C19.2618 25.8571 17.3005 25.4467 15.8103 24.7016C15.5168 24.5549 15.2468 24.3973 15 24.2305V24.9522C15.0001 26.2333 17.7083 27.6662 21.3328 27.6662Z" fill="#8D8F96"/>
<path d="M21.3328 24.0451C21.5123 24.0451 21.6894 24.0415 21.8643 24.0346C22.1452 23.3455 22.529 22.7091 22.997 22.1446C22.4552 22.2044 21.8983 22.236 21.3328 22.236C19.2618 22.236 17.3005 21.8257 15.8103 21.0806C15.5168 20.9338 15.2468 20.7762 15 20.6094V21.3312C15.0001 22.6123 17.7083 24.0451 21.3328 24.0451Z" fill="#8D8F96"/>
<path d="M24.0479 23.763C23.6565 24.3515 23.3767 25.0204 23.2391 25.7392C23.1756 26.0706 23.1421 26.4124 23.1421 26.762C23.1421 27.0248 23.1613 27.2833 23.1975 27.5362C23.2866 28.1576 23.4813 28.7451 23.7627 29.2803C24.0581 29.842 24.4488 30.346 24.9135 30.7704C25.8791 31.6523 27.1634 32.191 28.5711 32.191C31.5646 32.191 34.0001 29.7556 34.0001 26.762C34.0001 23.7684 31.5646 21.333 28.5711 21.333C28.2617 21.333 27.9583 21.3594 27.6629 21.4094C26.158 21.6639 24.8618 22.5397 24.0479 23.763Z" fill="#8D8F96"/>
</svg>
