<svg width="48" height="48" viewBox="0 0 48 48" fill="none" xmlns="http://www.w3.org/2000/svg">
<rect width="48" height="48" rx="24" fill="#F1F3F8" fill-opacity="0.1"/>
<path d="M24.1941 29.3053H20.6524C20.1318 29.3053 19.7097 28.8832 19.7097 28.3627V25.0288L21.0679 25.2904C21.538 25.2904 21.7749 24.7235 21.443 24.3898L20.4969 23.4437L18.6728 21.6196C18.5678 21.5165 18.4337 21.4629 18.2977 21.4629C18.1636 21.4629 18.0297 21.5165 17.9248 21.6196L16.1006 23.4437L15.1549 24.3898C14.823 24.7235 15.0599 25.2904 15.53 25.2904L16.8881 25.0288V29.4862C16.8881 30.9446 18.0705 32.1273 19.5292 32.1273H19.7097H24.253C25.0465 32.1273 25.687 31.472 25.6632 30.6732C25.64 29.9008 24.9666 29.3053 24.1941 29.3053Z" fill="#8D8F96"/>
<path d="M23.8057 17.8216H27.3474C27.8679 17.8216 28.29 18.2437 28.29 18.7642V22.0982L26.9319 21.8365C26.4618 21.8365 26.2249 22.4034 26.5568 22.7372L27.5028 23.6832L29.327 25.5074C29.432 25.6105 29.5661 25.6641 29.7021 25.6641C29.8362 25.6641 29.97 25.6105 30.075 25.5074L31.8991 23.6832L32.8452 22.7372C33.1771 22.4034 32.9402 21.8365 32.4701 21.8365L31.1119 22.0982V17.6411C31.1119 16.1827 29.9296 15 28.4708 15H28.2903H23.7468C22.9533 15 22.3128 15.6553 22.3366 16.454C22.3598 17.2262 23.0332 17.8216 23.8057 17.8216Z" fill="#8D8F96"/>
</svg>
