<svg width="100" height="100" viewBox="0 0 100 100" fill="none" xmlns="http://www.w3.org/2000/svg">
<rect x="1.5" y="1.5" width="97" height="97" rx="48.5" stroke="#14CCBD" stroke-width="3"/>
<path d="M48.1905 68.1486C48.0658 68.1486 47.9425 68.1228 47.8283 68.0728C47.7142 68.0228 47.6115 67.9498 47.5269 67.8582L29.6366 48.506C29.5173 48.377 29.4382 48.216 29.409 48.0427C29.3799 47.8695 29.4018 47.6915 29.4722 47.5305C29.5426 47.3695 29.6584 47.2326 29.8055 47.1364C29.9525 47.0402 30.1244 46.989 30.3001 46.989H38.9115C39.0408 46.989 39.1686 47.0168 39.2863 47.0704C39.4039 47.124 39.5087 47.2022 39.5936 47.2997L45.5726 54.1784C46.2188 52.7972 47.4697 50.4973 49.6647 47.6948C52.9098 43.5517 58.9457 37.4586 69.2726 31.9581C69.4722 31.8518 69.7044 31.8242 69.9234 31.8808C70.1423 31.9373 70.3321 32.0739 70.4552 32.2636C70.5784 32.4533 70.6259 32.6822 70.5885 32.9052C70.551 33.1283 70.4314 33.3291 70.253 33.4682C70.2136 33.499 66.2319 36.6346 61.6495 42.3778C57.4322 47.6631 51.826 56.3053 49.0673 67.4622C49.0189 67.6582 48.9062 67.8323 48.7472 67.9568C48.5882 68.0813 48.3921 68.1489 48.1902 68.1489L48.1905 68.1486Z" fill="#14CCBD"/>
</svg>
