<svg width="20" height="20" viewBox="0 0 20 20" fill="none" xmlns="http://www.w3.org/2000/svg">
<path d="M2.39844 18.0005H11.9984" stroke="#F4F5FB" stroke-width="1.2" stroke-linecap="round" stroke-linejoin="round"/>
<path d="M3.19922 7.60034H11.1992" stroke="#F4F5FB" stroke-width="1.2" stroke-linecap="round" stroke-linejoin="round"/>
<path d="M11.1992 18.0002V3.60024C11.1992 3.1759 11.0306 2.76893 10.7306 2.46887C10.4305 2.16882 10.0236 2.00024 9.59922 2.00024H4.79922C4.37487 2.00024 3.96791 2.16882 3.66785 2.46887C3.36779 2.76893 3.19922 3.1759 3.19922 3.60024V18.0002" stroke="#F4F5FB" stroke-width="1.2" stroke-linecap="round" stroke-linejoin="round"/>
<path d="M11.1992 10.7999H12.7992C13.2236 10.7999 13.6305 10.9685 13.9306 11.2685C14.2306 11.5686 14.3992 11.9756 14.3992 12.3999V13.9999C14.3992 14.4242 14.5678 14.8312 14.8678 15.1313C15.1679 15.4313 15.5749 15.5999 15.9992 15.5999C16.4236 15.5999 16.8305 15.4313 17.1306 15.1313C17.4306 14.8312 17.5992 14.4242 17.5992 13.9999V8.2639C17.5994 8.05277 17.5578 7.8437 17.4768 7.64873C17.3957 7.45376 17.277 7.27675 17.1272 7.1279L14.3992 4.3999" stroke="#F4F5FB" stroke-width="1.2" stroke-linecap="round" stroke-linejoin="round"/>
</svg>
