<svg width="16" height="16" viewBox="0 0 16 16" fill="none" xmlns="http://www.w3.org/2000/svg">
<path d="M12.6667 13.3327H3.33333C2.97971 13.3327 2.64057 13.1922 2.39052 12.9422C2.14048 12.6921 2 12.353 2 11.9993V5.99935C2 5.64573 2.14048 5.30659 2.39052 5.05654C2.64057 4.80649 2.97971 4.66602 3.33333 4.66602H12.6667C13.0203 4.66602 13.3594 4.80649 13.6095 5.05654C13.8595 5.30659 14 5.64573 14 5.99935V11.9993C14 12.353 13.8595 12.6921 13.6095 12.9422C13.3594 13.1922 13.0203 13.3327 12.6667 13.3327Z" stroke="#A19FA3"/>
<path d="M10.9999 9.33268C10.9115 9.33268 10.8267 9.29756 10.7642 9.23505C10.7017 9.17254 10.6666 9.08775 10.6666 8.99935C10.6666 8.91094 10.7017 8.82616 10.7642 8.76365C10.8267 8.70113 10.9115 8.66602 10.9999 8.66602C11.0883 8.66602 11.1731 8.70113 11.2356 8.76365C11.2982 8.82616 11.3333 8.91094 11.3333 8.99935C11.3333 9.08775 11.2982 9.17254 11.2356 9.23505C11.1731 9.29756 11.0883 9.33268 10.9999 9.33268Z" fill="#A19FA3" stroke="#A19FA3" stroke-width="0.8" stroke-linecap="round" stroke-linejoin="round"/>
<path d="M12 4.66664V3.73531C11.9999 3.53097 11.9529 3.32939 11.8626 3.14612C11.7722 2.96285 11.641 2.80279 11.4789 2.67831C11.3169 2.55384 11.1284 2.46827 10.928 2.42821C10.7277 2.38816 10.5208 2.39469 10.3233 2.44731L2.99 4.40264C2.70604 4.47831 2.45503 4.64568 2.27599 4.87872C2.09696 5.11177 1.99993 5.39743 2 5.69131V5.99997" stroke="#A19FA3"/>
</svg>
