<svg width="20" height="20" viewBox="0 0 20 20" fill="none" xmlns="http://www.w3.org/2000/svg">
<path d="M10 19C14.9706 19 19 14.9706 19 10C19 5.02943 14.9706 1 10 1C5.02943 1 1 5.02943 1 10C1 14.9706 5.02943 19 10 19Z" fill="#3396FF"/>
<path d="M6.50476 7.69771C8.43517 5.81522 11.5651 5.81522 13.4955 7.69771L13.7278 7.92428C13.8244 8.01838 13.8244 8.17097 13.7278 8.26511L12.9331 9.04015C12.8848 9.08717 12.8066 9.08717 12.7583 9.04015L12.4386 8.72834C11.0919 7.41506 8.90839 7.41506 7.56163 8.72834L7.21923 9.06224C7.17099 9.10931 7.09273 9.10931 7.04449 9.06224L6.24975 8.28721C6.15318 8.19311 6.15318 8.04047 6.24975 7.94638L6.50476 7.69771ZM15.1392 9.30052L15.8465 9.99028C15.9431 10.0844 15.9431 10.237 15.8465 10.3311L12.6571 13.4414C12.5605 13.5355 12.404 13.5355 12.3075 13.4414L10.0438 11.234C10.0197 11.2104 9.98061 11.2104 9.95644 11.234L7.69281 13.4414C7.59628 13.5355 7.43982 13.5355 7.34325 13.4414L4.15372 10.3311C4.0572 10.237 4.0572 10.0844 4.15372 9.99028L4.86107 9.30047C4.95759 9.20638 5.11408 9.20638 5.2106 9.30047L7.47433 11.5079C7.49845 11.5315 7.53756 11.5315 7.56168 11.5079L9.82531 9.30047C9.92184 9.20633 10.0783 9.20633 10.1749 9.30047L12.4386 11.5079C12.4627 11.5315 12.5018 11.5315 12.5259 11.5079L14.7897 9.30052C14.8861 9.20638 15.0427 9.20638 15.1392 9.30052Z" fill="white"/>
</svg>
