<svg width="179" height="42" viewBox="0 0 179 42" fill="none" xmlns="http://www.w3.org/2000/svg">
<path d="M53.8931 16.5531V5.52379L44.3823 0.0786126L44.2789 0.0181405L26.8858 9.89798L9.63243 0.0604722L9.52917 0L0.103391 5.44505L0 5.50552V16.5531L7.69382 21L0.103391 25.3863L0 25.4469V36.3734L9.4197 41.9395L9.52917 42L17.5754 37.3898L26.8979 32.1625L36.2144 37.3898L44.1756 41.9395L44.2849 42L53.7959 36.4399L53.8931 36.3795V25.4408L46.1628 20.994L53.7898 16.6075L53.8931 16.5531ZM37.4846 16.0086L52.0031 7.69577V15.4641L44.2728 19.9049L37.4846 16.0086ZM35.5945 14.9256L28.7697 10.987L44.2667 2.16593L51.0549 6.07435L35.5945 14.9256ZM35.5945 17.0916L51.0672 25.9853L44.3092 29.8634L28.8123 20.8971L35.5945 17.0916ZM33.6984 16.0026L26.8858 19.8322L20.1036 16.0026L26.8858 12.0639L33.6984 16.0026ZM1.89001 15.4702V7.69577L16.3235 16.0026L9.57776 19.9049L1.89001 15.4702ZM2.82597 6.0683L9.51094 2.17197L24.9654 10.987L18.177 14.9256L2.82597 6.0683ZM24.9897 20.9273L9.53524 29.8634L2.85027 25.9672L18.244 17.0674L24.9897 20.9273ZM8.58106 31.5151V39.2654L1.89609 35.3025V27.6189L8.58106 31.5151ZM25.9316 22.5489V30.4139L10.4711 39.2714V31.509L25.9316 22.5489ZM43.3248 31.5151V39.2896L27.8218 30.4321V22.567L43.3248 31.5151ZM52.0031 27.6189V35.3086L45.2148 39.2775V31.5151L52.0031 27.6189Z" fill="#0CC2FF"/>
<path d="M67.8229 2.8916L65.8418 4.86389V16.6859L67.8229 18.6522H76.3864L78.3664 16.6859V13.3946H75.9845V15.7118L75.4132 16.2865H68.8014L68.2241 15.7118V5.838L68.8014 5.26326H75.4132L75.9845 5.838V8.15511H78.3664V4.86389L76.3864 2.8916H67.8229Z" fill="white"/>
<path d="M82.5957 2.8916V18.6522H84.9789V13.3946H86.4794L91.7602 18.6522H95.1217L89.8345 13.3946H93.1405L95.1217 11.4223V4.86389L93.1405 2.8916H82.5957ZM92.7385 10.4482L92.1311 11.0531H85.0267V5.2935H92.2099L92.8174 5.86824L92.7385 10.4482Z" fill="white"/>
<path d="M101.363 2.8916L99.3887 4.86389V16.6858L101.363 18.6522H109.932L111.913 16.6858V4.86389L109.932 2.8916H101.363ZM109.531 15.7118L108.924 16.2865H102.311L101.703 15.7118V5.838L102.311 5.26326H108.924L109.531 5.838V15.7118Z" fill="white"/>
<path d="M118.135 2.8916L116.16 4.86389V9.64954L118.135 11.622H125.725L126.303 12.1967V15.7118L125.725 16.2865H119.113L118.537 15.7118V14.0662H116.16V16.6859L118.135 18.6522H126.704L128.68 16.6859V11.2226L126.704 9.2503H119.113L118.537 8.68148V5.838L119.113 5.26326H125.725L126.303 5.838V7.48362H128.68V4.86389L126.704 2.8916H118.135Z" fill="white"/>
<path d="M134.908 2.8916L132.934 4.86389V9.64954L134.908 11.622H142.5L143.076 12.1967V15.7118L142.5 16.2865H135.888L135.31 15.7118V14.0662H132.934V16.6859L134.908 18.6522H143.478L145.453 16.6859V11.2226L143.478 9.2503H135.888L135.31 8.68148V5.838L135.888 5.26326H142.5L143.076 5.838V7.48362H145.453V4.86389L143.478 2.8916H134.908Z" fill="white"/>
<path d="M149.701 4.86389V18.6522H152.083V11.4223H159.595V9.05061H152.083V5.838L152.661 5.26326H162.226V2.8916H151.682L149.701 4.86389Z" fill="white"/>
<path d="M179.001 5.26326V2.8916H166.475V5.26326H171.562V16.2865H166.475V18.6522H179.001V16.2865H173.938V5.26326H179.001Z" fill="white"/>
<path d="M120.597 23.1602H111.839L109.688 25.3079V39.4229H112.726V34.2198H120.626L122.681 32.1688L122.783 32.0721V25.3079L120.597 23.1602ZM119.727 26.5422V30.8378L119.356 31.2068H112.708V26.5422L113.085 26.167H119.356L119.727 26.5422Z" fill="#0CC2FF"/>
<path d="M96.9741 23.1602L94.8223 25.3079V39.4229H97.8607V34.2198H105.761L107.913 32.0721V25.3079L105.761 23.1602H96.9741ZM104.875 26.5422V30.8378L104.497 31.2068H97.8556V26.5422L98.2316 26.167H104.473L104.875 26.5422Z" fill="#0CC2FF"/>
<path d="M82.1095 23.1602L79.959 25.3079V39.4229H82.9974V34.8853H90.0165V39.4229H93.0549V25.3079L90.9031 23.1602H82.1095ZM90.01 26.5422V31.8784H82.991V26.5422L83.3619 26.167H89.6326L90.01 26.5422Z" fill="#0CC2FF"/>
<path d="M74.1976 31.0732L71.3596 33.8502L68.564 31.1216L68.5154 31.0732H65.6348L69.9071 35.1691L65.6348 39.2591H68.5154L71.3596 36.482L74.149 39.2166L74.1976 39.2591H77.0788L72.7877 35.1691L77.0788 31.0732H74.1976Z" fill="#0CC2FF"/>
</svg>
