<svg width="54" height="42" viewBox="0 0 54 42" fill="none" xmlns="http://www.w3.org/2000/svg">
<path d="M53.8931 16.5531V5.52379L44.3823 0.0786126L44.2789 0.0181405L26.8858 9.89798L9.63243 0.0604722L9.52917 0L0.103391 5.44505L0 5.50552V16.5531L7.69382 21L0.103391 25.3863L0 25.4469V36.3734L9.4197 41.9395L9.52917 42L17.5754 37.3898L26.8979 32.1625L36.2144 37.3898L44.1756 41.9395L44.2849 42L53.7959 36.4399L53.8931 36.3795V25.4408L46.1628 20.994L53.7898 16.6075L53.8931 16.5531ZM37.4846 16.0086L52.0031 7.69577V15.4641L44.2728 19.9049L37.4846 16.0086ZM35.5945 14.9256L28.7697 10.987L44.2667 2.16593L51.0549 6.07435L35.5945 14.9256ZM35.5945 17.0916L51.0672 25.9853L44.3092 29.8634L28.8123 20.8971L35.5945 17.0916ZM33.6984 16.0026L26.8858 19.8322L20.1036 16.0026L26.8858 12.0639L33.6984 16.0026ZM1.89001 15.4702V7.69577L16.3235 16.0026L9.57776 19.9049L1.89001 15.4702ZM2.82597 6.0683L9.51094 2.17197L24.9654 10.987L18.177 14.9256L2.82597 6.0683ZM24.9897 20.9273L9.53524 29.8634L2.85027 25.9672L18.244 17.0674L24.9897 20.9273ZM8.58106 31.5151V39.2654L1.89609 35.3025V27.6189L8.58106 31.5151ZM25.9316 22.5489V30.4139L10.4711 39.2714V31.509L25.9316 22.5489ZM43.3248 31.5151V39.2896L27.8218 30.4321V22.567L43.3248 31.5151ZM52.0031 27.6189V35.3086L45.2148 39.2775V31.5151L52.0031 27.6189Z" fill="#0CC2FF"/>
</svg>
